<?xml version="1.0" encoding="iso-8859-1"?>
<!-- Generator: Adobe Illustrator 19.0.0, SVG Export Plug-In . SVG Version: 6.00 Build 0)  -->
<svg xmlns="http://www.w3.org/2000/svg" xmlns:xlink="http://www.w3.org/1999/xlink" version="1.1" id="Capa_1" x="0px" y="0px" viewBox="0 0 512 512" style="enable-background:new 0 0 512 512;" xml:space="preserve" width="512px" height="512px">
<g>
	<g>
		<circle cx="255.998" cy="42.14" r="42.14" fill="#FFFFFF"/>
	</g>
</g>
<g>
	<g>
		<path d="M386.394,273.376c-0.333-0.912-33.533-91.744-48.155-134.29c-9.433-27.452-25.251-41.372-47.014-41.372    c-1.123,0-2.209,0-3.278,0c5.428,5.269,9.567,11.856,11.878,19.249c10.583,3.664,18.206,13.723,18.206,25.537v61.496    c14.505,40.489,29.942,82.722,30.17,83.343c3.856,10.546,15.53,15.971,26.079,12.115    C384.826,295.599,390.25,283.922,386.394,273.376z" fill="#FFFFFF"/>
	</g>
</g>
<g>
	<g>
		<path d="M220.774,97.713c-21.761,0-37.579,13.919-47.013,41.371c-14.621,42.544-47.822,133.379-48.155,134.291    c-3.856,10.546,1.568,22.223,12.114,26.079c10.538,3.855,22.221-1.562,26.079-12.115c0.227-0.622,15.664-42.855,30.169-83.343    v-61.496h0.001c0-11.813,7.624-21.873,18.206-25.537c2.31-7.392,6.451-13.98,11.878-19.249    C222.984,97.713,221.898,97.713,220.774,97.713z" fill="#FFFFFF"/>
	</g>
</g>
<g>
	<g>
		<path d="M336.67,326.651c-8.537-44.079-14.483-74.706-18.64-96.125v4.761c0,14.9-12.122,27.021-27.021,27.021h-70.02    c-14.9,0-27.021-12.122-27.021-27.021v-4.769c-4.157,21.425-10.104,52.056-18.641,96.134c-1.355,6.993,4.036,13.456,11.09,13.456    c4.379,0,9.634,0,15.515,0V487.6c0,13.476,10.924,24.4,24.4,24.4s24.4-10.924,24.4-24.4V340.108c3.507,0,7.027,0,10.534,0V487.6    c0,13.476,10.924,24.4,24.4,24.4s24.4-10.924,24.4-24.4V340.108c5.883,0,11.137,0,15.515,0    C332.67,340.108,338.023,333.638,336.67,326.651z" fill="#FFFFFF"/>
	</g>
</g>
<g>
	<g>
		<path d="M291.01,130.63h-4.259c0-5.507-1.463-10.677-4.009-15.153C277.449,106.173,267.448,99.88,256,99.88    s-21.449,6.293-26.742,15.598c-2.547,4.476-4.009,9.645-4.009,15.153h-4.259c-6.555,0-11.869,5.314-11.869,11.869v92.787    c0,6.555,5.314,11.868,11.869,11.868h70.02c6.555,0,11.869-5.313,11.869-11.868v-92.787    C302.878,135.944,297.565,130.63,291.01,130.63z M252.361,115.478h7.276c6.849,1.646,11.96,7.807,11.96,15.153h-31.197    C240.401,123.285,245.512,117.123,252.361,115.478z M272.499,218.197h-32.998c-5.578,0-10.102-4.523-10.102-10.102    c0-5.579,4.524-10.102,10.102-10.102h32.998c5.578,0,10.102,4.523,10.102,10.102C282.601,213.675,278.077,218.197,272.499,218.197    z" fill="#FFFFFF"/>
	</g>
</g>
<g>
</g>
<g>
</g>
<g>
</g>
<g>
</g>
<g>
</g>
<g>
</g>
<g>
</g>
<g>
</g>
<g>
</g>
<g>
</g>
<g>
</g>
<g>
</g>
<g>
</g>
<g>
</g>
<g>
</g>
</svg>
