<?xml version="1.0" encoding="iso-8859-1"?>
<!-- Generator: Adobe Illustrator 19.0.0, SVG Export Plug-In . SVG Version: 6.00 Build 0)  -->
<svg version="1.1" id="Capa_1" xmlns="http://www.w3.org/2000/svg" xmlns:xlink="http://www.w3.org/1999/xlink" x="0px" y="0px"
	 viewBox="0 0 512 512" style="enable-background:new 0 0 512 512;" xml:space="preserve">
<path style="fill:#BA6746;" d="M310.067,329.091v158.51c0,13.475-10.924,24.399-24.399,24.399s-24.399-10.924-24.399-24.399v-158.51
	H310.067z"/>
<path style="fill:#CE7151;" d="M250.733,329.091v158.51c0,13.475-10.924,24.399-24.399,24.399s-24.399-10.924-24.399-24.399v-158.51
	H250.733z"/>
<path style="fill:#96A5D7;" d="M386.395,275.293c-0.334-0.913-33.534-91.744-48.155-134.292
	c-9.434-27.451-25.252-41.371-47.015-41.371h-70.45c-21.763,0-37.581,13.919-47.015,41.371
	c-14.621,42.544-47.821,133.379-48.155,134.292c-3.856,10.547,1.568,22.223,12.114,26.079c10.524,3.847,22.214-1.547,26.079-12.114
	c0.283-0.774,40.408-112.103,40.408-112.103l-28.881,151.414c-1.354,6.993,4.036,13.456,11.089,13.456c31.418,0,107.771,0,139.165,0
	c7.078,0,12.445-6.457,11.089-13.456l-28.88-151.414c0,0,40.126,111.329,40.409,112.103c3.862,10.563,15.548,15.965,26.079,12.114
	C384.827,297.515,390.25,285.84,386.395,275.293z"/>
<path style="fill:#8093CF;" d="M386.395,275.293c-0.334-0.913-33.534-91.744-48.155-134.291
	c-9.434-27.452-25.252-41.371-47.015-41.371h-35.211v242.395c26.938,0,53.873,0,69.569,0c7.078,0,12.445-6.457,11.089-13.456
	l-28.88-151.414c0,0,40.126,111.329,40.409,112.103c3.862,10.563,15.548,15.965,26.079,12.114
	C384.827,297.515,390.25,285.84,386.395,275.293z"/>
<circle style="fill:#BA6746;" cx="255.999" cy="42.143" r="42.143"/>
<g>
	<path style="fill:#BA6746;" d="M386.395,275.293c3.856,10.547-1.568,22.223-12.114,26.079c-2.305,0.842-4.662,1.242-6.98,1.242
		c-8.294-0.001-16.085-5.114-19.099-13.356C348.109,289.008,386.353,275.182,386.395,275.293z"/>
	<path style="fill:#BA6746;" d="M163.799,289.257c-3.861,10.562-15.547,15.966-26.079,12.114
		c-10.547-3.856-15.971-15.532-12.114-26.078C125.647,275.182,163.891,289.009,163.799,289.257z"/>
</g>
<path style="fill:#FA2D14;" d="M256,155.535c-16.385,0-29.714-13.33-29.714-29.714S239.616,96.107,256,96.107
	s29.714,13.33,29.714,29.714S272.385,155.535,256,155.535z M256,110.748c-8.311,0-15.073,6.762-15.073,15.072
	c0,8.311,6.762,15.073,15.073,15.073c8.31,0,15.072-6.762,15.072-15.073C271.072,117.51,264.311,110.748,256,110.748z"/>
<g>
	<path style="fill:#BE1423;" d="M220.355,99.64c-6.825,0.055-13.061,1.49-18.695,4.29v57.536h18.695V99.64z"/>
	<path style="fill:#BE1423;" d="M310.34,103.942c-5.633-2.804-11.869-4.244-18.695-4.303v61.826h18.695V103.942z"/>
</g>
<path style="fill:#FF4F38;" d="M296.583,260.89h-81.164c-7.598,0-13.757-6.159-13.757-13.757V139.578
	c0-7.598,6.159-13.757,13.757-13.757h81.164c7.598,0,13.757,6.159,13.757,13.757v107.555
	C310.34,254.73,304.18,260.89,296.583,260.89z"/>
<path style="fill:#FF3C3C;" d="M296.583,125.82h-40.569v135.07h40.569c7.598,0,13.757-6.16,13.757-13.757V139.578
	C310.34,131.98,304.18,125.82,296.583,125.82z"/>
<path style="fill:#BE1423;" d="M275.125,227.323h-38.251c-6.467,0-11.709-5.242-11.709-11.709s5.242-11.709,11.709-11.709h38.251
	c6.467,0,11.709,5.242,11.709,11.709S281.592,227.323,275.125,227.323z"/>
<g>
</g>
<g>
</g>
<g>
</g>
<g>
</g>
<g>
</g>
<g>
</g>
<g>
</g>
<g>
</g>
<g>
</g>
<g>
</g>
<g>
</g>
<g>
</g>
<g>
</g>
<g>
</g>
<g>
</g>
</svg>
