<svg id="Layer_1" data-name="Layer 1" xmlns="http://www.w3.org/2000/svg" xmlns:xlink="http://www.w3.org/1999/xlink" viewBox="0 0 51.51 46.23"><defs><style>.cls-1,.cls-4{fill:none;}.cls-1{stroke:#840707;}.cls-1,.cls-3,.cls-4,.cls-5,.cls-6{stroke-miterlimit:10;}.cls-2{clip-path:url(#clip-path);}.cls-3{fill:#c64646;stroke:#f4efef;}.cls-4,.cls-5,.cls-6{stroke:#7a0303;}.cls-5{fill:#af2323;}.cls-6{fill:#ef4141;}</style><clipPath id="clip-path"><polygon class="cls-1" points="24.36 2.5 25.54 2.5 26.92 1 28.85 1.75 31.63 2.5 34.63 4.49 35.96 5.4 39.05 8.55 41.57 10.38 44.79 12.06 47.18 14.16 48.51 17.11 49.28 20.26 48.72 23.49 47.11 25.04 48.16 25.38 49.28 25.87 49.84 27.42 49.28 29.45 48.44 30.08 48.44 31.06 47.39 33.8 46.62 35.76 45.57 38.7 43.81 41.23 40.03 43.61 35.54 43.61 28.95 42.91 19.9 44.59 15.42 43.82 10.86 41.02 6.37 36.39 3.43 30.29 2.79 24.47 3.71 20.61 8.4 15.57 8.69 12.48 10.02 10.17 12.54 7.64 15.21 5.19 17.94 3.16 21.09 2.95 24.36 2.5"/></clipPath></defs><title>rose</title><g class="cls-2"><rect class="cls-3" x="2.8" width="49.89" height="46.23"/></g><polygon class="cls-1" points="24.36 2.5 25.54 2.5 26.92 1 28.85 1.75 31.63 2.5 34.63 4.49 35.96 5.4 39.05 8.55 41.57 10.38 44.79 12.06 47.18 14.16 48.51 17.11 49.28 20.26 48.72 23.49 47.11 25.04 48.16 25.38 49.28 25.87 49.84 27.42 49.28 29.45 48.44 30.08 48.44 31.06 47.39 33.8 46.62 35.76 45.57 38.7 43.81 41.23 40.03 43.61 35.54 43.61 28.95 42.91 19.9 44.59 15.42 43.82 10.86 41.02 6.37 36.39 3.43 30.29 2.79 24.47 3.71 20.61 8.4 15.57 8.69 12.48 10.02 10.17 12.54 7.64 15.21 5.19 17.94 3.16 21.09 2.95 24.36 2.5"/><polyline class="cls-4" points="36.56 7.83 39.51 10.5 41.8 13.64 43.8 16.69 43.8 20.02 43.8 24.4 42.94 28.87 39.42 33.73 36.37 36.97 28.14 37.63 24.95 35.44 22.57 32.78 21.52 31.25 18.67 30.97 14.1 28.11 10.19 22.48 9.62 18.31 12.48 13.17 16 10.31 20.09 7.55"/><polyline class="cls-4" points="29.61 41.1 35.81 39.2 39.96 36.36 43.8 33.95 46.73 28.85 46.73 26.38 45.53 23.82 43.8 23.23"/><polyline class="cls-4" points="11.67 25.29 11.67 27.31 12.73 30.51 14.04 33.12 16.45 36.04 20.04 39.2 23.64 40.27"/><polygon class="cls-4" points="18.32 16.62 17.39 20.87 17.86 25.31 17.86 27.57 19.45 28.83 21.44 30.09 24.89 31.83 26.71 32.16 31.07 31.16 33.86 30.69 38.11 29.23 41.89 26.91 42.62 21.33 40.7 16.62 38.24 12.63 33.86 9.78 27.65 9.45 22.17 10.57 19.18 13.83 18.32 16.62"/><polygon class="cls-5" points="24.16 13.63 27.35 13.23 30.87 13.96 33.19 15.49 35.85 18.41 37.77 21.13 36.78 23.65 33.59 26.44 29.2 28.3 30.67 28.63 33.19 27.44 37.24 24.72 38.97 21.46 37.18 17.75 33.92 14.82 29.61 12.57 27.28 12.57 24.16 12.83 21.18 14.96 19.32 18.01 18.98 21.97 20.78 24.72 23.77 27.24 28.02 29.1 25.63 26.64 22.52 24.18 20.84 22.86 19.85 19.54 20.58 17.28 20.91 19.07 21.97 22.48 22.67 23.63 24.48 25.1 28.03 27.05 31.42 27.13 28.98 26.32 25.62 25.16 23.37 22.66 22.34 19.77 22.01 16.22 23.01 14.38 24.16 13.63"/><polygon class="cls-6" points="26.71 17.35 29.2 16.7 32.2 16.7 33.49 17.35 34.35 19.17 34.35 21.69 34.62 24.43 34.62 25.07 35.26 22.48 34.99 20.14 34.83 18.1 33.76 16.7 32.26 16.06 29.79 16.06 27.27 16.54 26.71 17.35"/><polyline class="cls-4" points="25.45 20.83 24.75 21.97 25.1 23.23 25.82 23.84 27.38 24.43 29.2 25.07 30.54 25.71 31.56 26.09"/></svg>